<svg xmlns="http://www.w3.org/2000/svg" version="1.2" viewBox="0 0 454 139">
  <g fill="none" fill-rule="evenodd" stroke-linecap="square" stroke-linejoin="bevel" transform="translate(6.5 4.8)">
    <path stroke="none" d="M0 0h440v130H0z"/>
    <rect width="441" height="129" stroke="#d0d7de" rx="6" ry="6"/>
    <path fill="#57606a" stroke="none" d="M22 32.3h-1.3V31H22v1.3m0-3.8h-1.3v1.3H22v-1.3m0-2.5h-1.3v1.3H22V26m0-2.5h-1.3v1.3H22v-1.3m10-1.3v15c0 .7-.6 1.3-1.3 1.3h-6.2V41l-1.9-1.9-1.9 1.9v-2.5h-2.4c-.7 0-1.3-.6-1.3-1.3v-15c0-.6.6-1.2 1.3-1.2h12.4c.7 0 1.3.6 1.3 1.3m-1.3 12.4H18.4v2.5h2.4V36h3.8v1.3h6.3v-2.5m0-12.5H19.4v11.2h11.3V22.2"/>
    <a fill="#0969da">
      <text x="41" y="33" stroke="none" font-family="sans-serif" font-size="16" font-weight="630">menu-app</text>
    </a>
    <text x="17" y="65" fill="#57606a" stroke="none" font-family="sans-serif" font-size="14" font-weight="400">
      <tspan x="17" y="65">A simple meal plan builder.</tspan>
      <tspan x="17" y="82.5"></tspan>
    </text>
    <text x="33" y="112" fill="#57606a" stroke="none" font-family="sans-serif" font-size="12" font-weight="400">CSS</text>
    <circle cx="23" cy="107" r="7" fill="#563d7c" stroke="#57606a"/>
  </g>
</svg>
