<svg xmlns="http://www.w3.org/2000/svg" version="1.2" viewBox="0 0 454 347">
  <g fill="none" fill-rule="evenodd" stroke-linecap="square" stroke-linejoin="bevel" transform="translate(6 4.3)">
    <path d="M.5 208.5h440v130H.5z"/>
    <rect width="441" height="337" x=".5" y=".5" stroke="#444c56" rx="6" ry="6"/>
    <path fill="#8b949e" d="M22.5 240.7h-1.3v-1.2h1.3v1.2m0-3.7h-1.3v1.2h1.3V237m0-2.5h-1.3v1.2h1.3v-1.2m0-2.5h-1.3v1.2h1.3V232m10-1.3v15c0 .7-.6 1.3-1.3 1.3H25v2.5l-1.9-1.9-1.9 1.9V247h-2.5c-.6 0-1.2-.6-1.2-1.3v-15c0-.7.6-1.2 1.2-1.2h12.5c.7 0 1.3.5 1.3 1.2m-1.3 12.5H18.7v2.5h2.5v-1.2H25v1.2h6.2v-2.5m0-12.5H20V242h11.2v-11.3"/>
    <a fill="#58a6ff" transform="translate(.5 208.5)">
      <text x="41" y="33" font-family="sans-serif" font-size="16" font-weight="630">simplify-svg-path</text>
    </a>
    <text x="17" y="65" fill="#8b949e" font-family="sans-serif" font-size="14" font-weight="400" transform="translate(.5 208.5)">
      <tspan x="17" y="65">Extracts `Path#simplify()` from Paper.js.</tspan>
      <tspan x="17" y="82.5"></tspan>
    </text>
    <text x="33" y="112" fill="#8b949e" font-family="sans-serif" font-size="12" font-weight="400" transform="translate(.5 208.5)">JavaScript</text>
    <circle cx="23.5" cy="315.5" r="7" fill="#f1e05a" stroke="#8b949e"/>
  </g>
</svg>
